<mxfile host="Electron" modified="2023-08-15T18:47:27.067Z" agent="Mozilla/5.0 (Windows NT 10.0; Win64; x64) AppleWebKit/537.36 (KHTML, like Gecko) draw.io/21.6.8 Chrome/114.0.5735.289 Electron/25.5.0 Safari/537.36" etag="Peb_d0zSEasMBh0PYP12" version="21.6.8" type="device">
  <diagram name="Страница — 1" id="oNV9TKB2LssYSnYdPAmr">
    <mxGraphModel dx="864" dy="516" grid="1" gridSize="10" guides="1" tooltips="1" connect="1" arrows="1" fold="1" page="1" pageScale="1" pageWidth="827" pageHeight="1169" math="0" shadow="0">
      <root>
        <mxCell id="0" />
        <mxCell id="1" parent="0" />
        <mxCell id="zfdXTblRlBJ3phR7WaWr-4" style="edgeStyle=orthogonalEdgeStyle;rounded=0;orthogonalLoop=1;jettySize=auto;html=1;exitX=0.5;exitY=1;exitDx=0;exitDy=0;entryX=0.5;entryY=0;entryDx=0;entryDy=0;" edge="1" parent="1" source="zfdXTblRlBJ3phR7WaWr-1" target="zfdXTblRlBJ3phR7WaWr-2">
          <mxGeometry relative="1" as="geometry" />
        </mxCell>
        <mxCell id="zfdXTblRlBJ3phR7WaWr-1" value="start" style="ellipse;whiteSpace=wrap;html=1;" vertex="1" parent="1">
          <mxGeometry x="320" y="80" width="120" height="80" as="geometry" />
        </mxCell>
        <mxCell id="zfdXTblRlBJ3phR7WaWr-5" style="edgeStyle=orthogonalEdgeStyle;rounded=0;orthogonalLoop=1;jettySize=auto;html=1;exitX=0.5;exitY=1;exitDx=0;exitDy=0;entryX=0.5;entryY=0;entryDx=0;entryDy=0;" edge="1" parent="1" source="zfdXTblRlBJ3phR7WaWr-2" target="zfdXTblRlBJ3phR7WaWr-3">
          <mxGeometry relative="1" as="geometry" />
        </mxCell>
        <mxCell id="zfdXTblRlBJ3phR7WaWr-2" value="x,y count" style="shape=parallelogram;perimeter=parallelogramPerimeter;whiteSpace=wrap;html=1;fixedSize=1;" vertex="1" parent="1">
          <mxGeometry x="320" y="200" width="120" height="60" as="geometry" />
        </mxCell>
        <mxCell id="zfdXTblRlBJ3phR7WaWr-3" value="-x*(-x)=x&lt;br&gt;x*x=x^3&lt;br&gt;" style="rhombus;whiteSpace=wrap;html=1;" vertex="1" parent="1">
          <mxGeometry x="325" y="460" width="110" height="80" as="geometry" />
        </mxCell>
        <mxCell id="zfdXTblRlBJ3phR7WaWr-18" style="edgeStyle=orthogonalEdgeStyle;rounded=0;orthogonalLoop=1;jettySize=auto;html=1;exitX=1;exitY=0.5;exitDx=0;exitDy=0;" edge="1" parent="1" source="zfdXTblRlBJ3phR7WaWr-8" target="zfdXTblRlBJ3phR7WaWr-17">
          <mxGeometry relative="1" as="geometry" />
        </mxCell>
        <mxCell id="zfdXTblRlBJ3phR7WaWr-8" value="duzgun eded daxil edin" style="shape=document;whiteSpace=wrap;html=1;boundedLbl=1;" vertex="1" parent="1">
          <mxGeometry x="520" y="320" width="120" height="80" as="geometry" />
        </mxCell>
        <mxCell id="zfdXTblRlBJ3phR7WaWr-12" style="edgeStyle=orthogonalEdgeStyle;rounded=0;orthogonalLoop=1;jettySize=auto;html=1;exitX=1;exitY=0.5;exitDx=0;exitDy=0;entryX=0;entryY=0.5;entryDx=0;entryDy=0;" edge="1" parent="1" source="zfdXTblRlBJ3phR7WaWr-10" target="zfdXTblRlBJ3phR7WaWr-8">
          <mxGeometry relative="1" as="geometry" />
        </mxCell>
        <mxCell id="zfdXTblRlBJ3phR7WaWr-13" value="ture" style="edgeLabel;html=1;align=center;verticalAlign=middle;resizable=0;points=[];" vertex="1" connectable="0" parent="zfdXTblRlBJ3phR7WaWr-12">
          <mxGeometry x="-0.16" relative="1" as="geometry">
            <mxPoint as="offset" />
          </mxGeometry>
        </mxCell>
        <mxCell id="zfdXTblRlBJ3phR7WaWr-14" style="edgeStyle=orthogonalEdgeStyle;rounded=0;orthogonalLoop=1;jettySize=auto;html=1;exitX=0;exitY=0.5;exitDx=0;exitDy=0;" edge="1" parent="1" source="zfdXTblRlBJ3phR7WaWr-10">
          <mxGeometry relative="1" as="geometry">
            <mxPoint x="240" y="360" as="targetPoint" />
          </mxGeometry>
        </mxCell>
        <mxCell id="zfdXTblRlBJ3phR7WaWr-15" value="false" style="edgeLabel;html=1;align=center;verticalAlign=middle;resizable=0;points=[];" vertex="1" connectable="0" parent="zfdXTblRlBJ3phR7WaWr-14">
          <mxGeometry x="0.0343" y="3" relative="1" as="geometry">
            <mxPoint as="offset" />
          </mxGeometry>
        </mxCell>
        <mxCell id="zfdXTblRlBJ3phR7WaWr-10" value="x&amp;gt;0" style="rhombus;whiteSpace=wrap;html=1;" vertex="1" parent="1">
          <mxGeometry x="340" y="320" width="80" height="80" as="geometry" />
        </mxCell>
        <mxCell id="zfdXTblRlBJ3phR7WaWr-16" value="serti odemir" style="rounded=1;whiteSpace=wrap;html=1;" vertex="1" parent="1">
          <mxGeometry x="120" y="330" width="120" height="60" as="geometry" />
        </mxCell>
        <mxCell id="zfdXTblRlBJ3phR7WaWr-17" value="end&lt;br&gt;" style="ellipse;whiteSpace=wrap;html=1;" vertex="1" parent="1">
          <mxGeometry x="710" y="320" width="120" height="80" as="geometry" />
        </mxCell>
      </root>
    </mxGraphModel>
  </diagram>
</mxfile>
